<svg xmlns="http://www.w3.org/2000/svg" width="50" height="50"><path d="M24.965-.031h.3c1.426.008 2.825.031 4.227.324l.29.059c4.722.988 9.019 3.128 12.503 6.484l.195.187c.926.891 1.782 1.801 2.54 2.84l.25.336c.59.801 1.113 1.633 1.605 2.496l.11.188c2.109 3.687 3.062 7.863 3.046 12.082v.3c-.008 1.426-.031 2.825-.324 4.227l-.059.29c-.988 4.722-3.128 9.019-6.484 12.503l-.187.195c-.891.926-1.801 1.782-2.84 2.54l-.336.25c-.801.59-1.633 1.117-2.496 1.605l-.211.117c-2.258 1.274-4.715 2.13-7.254 2.649l-.211.043c-1.434.273-2.852.351-4.309.347q-.432-.001-.863.004a23 23 0 0 1-3.852-.328l-.335-.055c-4.227-.761-8.235-2.71-11.48-5.511l-.22-.188c-1.32-1.152-2.558-2.398-3.59-3.816l-.25-.336c-.59-.801-1.117-1.633-1.605-2.496l-.117-.211C1.734 34.836.878 32.379.359 29.84l-.043-.211c-.289-1.531-.351-3.04-.347-4.594v-.3c.008-1.426.031-2.825.324-4.227l.059-.29C1.34 15.497 3.48 11.2 6.836 7.716l.187-.195c.891-.926 1.801-1.782 2.84-2.54l.336-.25c.801-.59 1.633-1.117 2.496-1.605l.211-.117C15.164 1.734 17.621.878 20.16.359l.211-.043c1.531-.289 3.04-.351 4.594-.347" style="stroke:none;fill-rule:nonzero;fill:#d4266c;fill-opacity:1"/><path d="M31.64 16.21c.876.466 1.727.966 2.575 1.474l.21.12c.9.536 1.79 1.075 2.677 1.63.773.48 1.554.945 2.34 1.41 1.59.941 3.167 1.89 4.734 2.867l.199.125c.531.332.531.332.656.719.106.508.133.949-.11 1.422-.69.644-1.608 1.039-2.448 1.46-.567.29-1.106.622-1.645.958-.203.12-.402.242-.605.363l-.293.176q-.786.467-1.57.93-1.097.648-2.192 1.296l-.598.356q-.895.531-1.785 1.062c-.246.149-.496.293-.742.442l-.348.207q-.24.145-.48.285l-.274.164c-.203.113-.203.113-.3.113-.418-3.195-.418-3.195.101-4.078.555-.668 1.465-.992 2.246-1.316.567-.243 1.078-.575 1.598-.903.277-.176.562-.344.844-.515 1.074-.653 2.148-1.317 3.218-1.977a24 24 0 0 0-1.898-1.238 85 85 0 0 1-2.145-1.32q-.696-.443-1.398-.872l-.172-.105-.844-.516-.308-.191c-.094-.055-.184-.11-.278-.168l-.28-.18-.184-.101c-.465-.274-.465-.274-.559-.575a5 5 0 0 1-.008-.672l.004-.246q.007-.39.02-.78.006-.265.007-.528c.008-.434.02-.863.036-1.297" style="stroke:none;fill-rule:nonzero;fill:#faf1ca;fill-opacity:1"/><path d="M18.36 16.21c.288 3.169.288 3.169-.141 3.977-.395.403-.903.586-1.422.786-.547.226-1.035.566-1.531.882-.22.133-.434.27-.653.399-1.46.902-2.918 1.808-4.36 2.746l.18.11q2.15 1.282 4.294 2.59l.171.1 1.11.677q.38.227.765.46.183.106.364.22l.508.304.289.176c.23.148.23.148.425.343.016.282.024.551.02.832v.247q-.004.397-.008.789c0 .18 0 .355-.004.535q-.001.65-.008 1.308a2.2 2.2 0 0 1-.945-.363l-.262-.164-.27-.176c-.519-.332-1.038-.656-1.581-.949-.649-.348-1.278-.734-1.903-1.117a72 72 0 0 0-2.242-1.332c-.691-.395-1.37-.813-2.05-1.227-1.47-.925-1.47-.925-3.016-1.715-.914-.414-.914-.414-1.09-.875a3.8 3.8 0 0 1-.07-.695l-.004-.226c.023-.348.07-.555.328-.797.226-.157.46-.29.703-.422l.418-.254.441-.266.52-.308.277-.168c.54-.32 1.078-.649 1.614-.977l.351-.21c.469-.286.942-.571 1.41-.856a655 655 0 0 1 4.813-2.907q.563-.335 1.125-.675l.277-.168.504-.305c.543-.328.543-.328.652-.328" style="stroke:none;fill-rule:nonzero;fill:#fafcfe;fill-opacity:1"/><path d="M29.2 10.84c.913.234 1.769.61 2.636.976-.063.504-.215.926-.41 1.391l-.094.238c-.105.258-.215.516-.32.778l-.227.55-.59 1.446-.55 1.343-.868 2.125-.937 2.29q-1.341 3.292-2.7 6.574a291 291 0 0 0-1.234 3.039c-.226.574-.46 1.144-.695 1.719l-.273.671-.141.344-.422 1.031a251 251 0 0 1-1.574 3.805c-.61-.2-1.211-.41-1.809-.64l-.238-.09-.227-.086-.203-.078c-.16-.082-.16-.082-.258-.278.094-.27.196-.531.305-.793l.106-.258q.116-.284.238-.578.339-.824.672-1.656.122-.3.25-.605.57-1.407 1.133-2.825.256-.662.554-1.308c.297-.649.559-1.309.824-1.973l.27-.676c.227-.574.453-1.144.684-1.718l.27-.68c.077-.2.155-.395.233-.594q.264-.666.563-1.32c.262-.57.488-1.152.715-1.738.496-1.27 1.008-2.532 1.527-3.79l.203-.488.102-.254c.289-.703.578-1.41.863-2.113l.27-.664q.2-.485.394-.977c.125-.3.246-.605.371-.906l.11-.277.105-.254.09-.219c.086-.191.086-.191.281-.484" style="stroke:none;fill-rule:nonzero;fill:#fbf3cb;fill-opacity:1"/><path d="M24.902 21.191H25q.024 1.464.035 2.926.005.68.016 1.36.011.66.015 1.316.001.25.008.5c.028 1.258-.23 2.23-.758 3.371l-.14.313q-.11.246-.227.492c-.324.715-.597 1.449-.879 2.18a31 31 0 0 1-.879 2.109c-.18.414-.332.836-.488 1.262q-.269.725-.601 1.425c-.11.235-.207.473-.301.715-.61-.2-1.211-.41-1.809-.64l-.238-.09-.227-.086-.203-.078c-.16-.082-.16-.082-.258-.278.094-.27.196-.531.305-.793l.106-.258q.116-.284.238-.578.339-.824.672-1.656.122-.3.25-.605.57-1.407 1.133-2.825.256-.662.554-1.308c.297-.649.559-1.309.824-1.973l.27-.676c.227-.574.453-1.144.684-1.718l.27-.68c.077-.2.155-.395.233-.594.22-.547.454-1.082.7-1.617.14-.312.261-.629.383-.95l.125-.327Zm0 0" style="stroke:none;fill-rule:nonzero;fill:#fafcfe;fill-opacity:1"/></svg>